<?xml version="1.0" standalone="no"?><!DOCTYPE svg PUBLIC "-//W3C//DTD SVG 1.1//EN" "http://www.w3.org/Graphics/SVG/1.1/DTD/svg11.dtd"><svg t="1691075235932" class="icon" viewBox="0 0 1024 1024" version="1.1" xmlns="http://www.w3.org/2000/svg" p-id="6016" xmlns:xlink="http://www.w3.org/1999/xlink" width="200" height="200"><path d="M512 754.474667c-12.501333 0-23.466667-4.693333-32.853333-14.08-18.773333-18.773333-18.773333-48.469333 0-65.706667L640.298667 512 479.146667 350.848c-18.773333-18.773333-18.773333-48.469333 0-65.706667 18.773333-18.773333 48.512-18.773333 65.706666 0l195.541334 195.584c18.773333 18.773333 18.773333 48.469333 0 65.706667l-195.541334 193.962667c-9.386667 9.386667-20.352 14.08-32.853333 14.08z" p-id="6017"></path><path d="M707.541333 558.933333h-389.546666a46.08 46.08 0 0 1-46.933334-46.933333c0-26.581333 20.352-46.933333 46.933334-46.933333h389.546666c26.624 0 46.933333 20.352 46.933334 46.933333 0 26.581333-21.888 46.933333-46.933334 46.933333z" p-id="6018"></path><path d="M512 981.333333C253.866667 981.333333 42.666667 770.133333 42.666667 512S253.866667 42.666667 512 42.666667s469.333333 211.2 469.333333 469.333333-211.2 469.333333-469.333333 469.333333z m0-844.8c-206.506667 0-375.466667 168.96-375.466667 375.466667 0 206.506667 168.96 375.466667 375.466667 375.466667 206.506667 0 375.466667-168.96 375.466667-375.466667 0-206.506667-168.96-375.466667-375.466667-375.466667z" p-id="6019"></path></svg>