<svg width="1016" height="644" viewBox="0 0 1016 644" fill="none" xmlns="http://www.w3.org/2000/svg">
<path fill-rule="evenodd" clip-rule="evenodd" d="M14.0602 70.4352C0 98.0298 0 134.153 0 206.4V437.6C0 509.847 0 545.97 14.0602 573.565C26.4278 597.838 46.1623 617.572 70.4352 629.94C98.0298 644 134.153 644 206.4 644H809.6C881.847 644 917.97 644 945.565 629.94C969.838 617.572 989.572 597.838 1001.94 573.565C1016 545.97 1016 509.847 1016 437.6V206.4C1016 134.153 1016 98.0298 1001.94 70.4352C989.572 46.1623 969.838 26.4278 945.565 14.0602C917.97 0 881.847 0 809.6 0H206.4C134.153 0 98.0298 0 70.4352 14.0602C46.1623 26.4278 26.4278 46.1623 14.0602 70.4352ZM907.999 97H108V547H907.999V97Z" fill="white"/>
<path fill-rule="evenodd" clip-rule="evenodd" d="M22.8612 75.4291C10 100.671 10 133.714 10 199.8V444.2C10 510.286 10 543.329 22.8612 568.571C34.1743 590.774 52.226 608.826 74.4291 620.139C99.6707 633 132.714 633 198.8 633H817.2C883.286 633 916.329 633 941.571 620.139C963.774 608.826 981.826 590.774 993.139 568.571C1006 543.329 1006 510.286 1006 444.2V199.8C1006 133.714 1006 100.671 993.139 75.4291C981.826 53.226 963.774 35.1743 941.571 23.8612C916.329 11 883.286 11 817.2 11H198.8C132.714 11 99.6707 11 74.4291 23.8612C52.226 35.1743 34.1743 53.226 22.8612 75.4291ZM114.431 129.215C108 141.835 108 158.357 108 191.4V452.6C108 485.643 108 502.165 114.431 514.785C120.087 525.887 129.113 534.913 140.215 540.569C152.835 547 169.357 547 202.4 547H813.599C846.642 547 863.163 547 875.784 540.569C886.886 534.913 895.911 525.887 901.568 514.785C907.999 502.165 907.999 485.643 907.999 452.6V191.4C907.999 158.357 907.999 141.835 901.568 129.215C895.911 118.113 886.886 109.087 875.784 103.431C863.163 97 846.642 97 813.599 97H202.4C169.357 97 152.835 97 140.215 103.431C129.113 109.087 120.087 118.113 114.431 129.215Z" fill="black"/>
</svg>
