<svg width="1016" height="644" viewBox="0 0 1016 644" fill="none" xmlns="http://www.w3.org/2000/svg">
<path fill-rule="evenodd" clip-rule="evenodd" d="M15.6951 78.6254C0 109.429 0 149.752 0 230.4V413.6C0 494.248 0 534.571 15.6951 565.375C29.5008 592.47 51.53 614.499 78.6254 628.305C109.429 644 149.752 644 230.4 644H785.6C866.248 644 906.571 644 937.375 628.305C964.47 614.499 986.499 592.47 1000.3 565.375C1016 534.571 1016 494.248 1016 413.6V230.4C1016 149.752 1016 109.429 1000.3 78.6254C986.499 51.53 964.47 29.5008 937.375 15.6951C906.571 0 866.248 0 785.6 0H230.4C149.752 0 109.429 0 78.6254 15.6951C51.53 29.5008 29.5008 51.53 15.6951 78.6254ZM115.848 136.313C108 151.714 108 171.876 108 212.2V431.8C108 472.124 108 492.286 115.848 507.687C122.75 521.235 133.765 532.25 147.313 539.152C162.714 547 182.876 547 223.2 547H792.799C833.122 547 853.284 547 868.686 539.152C882.234 532.25 893.248 521.235 900.151 507.687C907.999 492.286 907.999 472.124 907.999 431.8V212.2C907.999 171.876 907.999 151.714 900.151 136.313C893.248 122.765 882.234 111.75 868.686 104.848C853.284 97 833.122 97 792.799 97H223.2C182.876 97 162.714 97 147.313 104.848C133.765 111.75 122.75 122.765 115.848 136.313Z" fill="white"/>
<path fill-rule="evenodd" clip-rule="evenodd" d="M24.8231 85.2573C10 114.349 10 152.433 10 228.6V415.4C10 491.567 10 529.651 24.8231 558.743C37.8619 584.333 58.6672 605.138 84.2573 618.177C113.349 633 151.433 633 227.6 633H788.4C864.567 633 902.651 633 931.743 618.177C957.333 605.138 978.138 584.333 991.177 558.743C1006 529.651 1006 491.567 1006 415.4V228.6C1006 152.433 1006 114.349 991.177 85.2573C978.138 59.6672 957.333 38.8619 931.743 25.8231C902.651 11 864.567 11 788.4 11H227.6C151.433 11 113.349 11 84.2573 25.8231C58.6672 38.8619 37.8619 59.6672 24.8231 85.2573ZM115.848 136.313C108 151.714 108 171.876 108 212.2V431.8C108 472.124 108 492.286 115.848 507.687C122.75 521.235 133.765 532.25 147.313 539.152C162.714 547 182.876 547 223.2 547H792.799C833.122 547 853.284 547 868.686 539.152C882.234 532.25 893.248 521.235 900.151 507.687C907.999 492.286 907.999 472.124 907.999 431.8V212.2C907.999 171.876 907.999 151.714 900.151 136.313C893.248 122.765 882.234 111.75 868.686 104.848C853.284 97 833.122 97 792.799 97H223.2C182.876 97 162.714 97 147.313 104.848C133.765 111.75 122.75 122.765 115.848 136.313Z" fill="black"/>
</svg>
