<?xml version="1.0" standalone="no"?>
<!DOCTYPE svg PUBLIC "-//W3C//DTD SVG 20010904//EN"
 "http://www.w3.org/TR/2001/REC-SVG-20010904/DTD/svg10.dtd">
<svg version="1.0" xmlns="http://www.w3.org/2000/svg"
 width="420.000000pt" height="420.000000pt" viewBox="0 0 420.000000 420.000000"
 preserveAspectRatio="xMidYMid meet">
<metadata>
Created by potrace 1.14, written by Peter Selinger 2001-2017
</metadata>
<g transform="translate(0.000000,420.000000) scale(0.100000,-0.100000)"
fill="#000000" stroke="none">
<path d="M1915 3534 c-16 -2 -61 -11 -100 -19 -38 -9 -80 -17 -93 -20 -67 -12
-205 -61 -258 -90 -96 -54 -157 -126 -179 -213 -12 -45 -14 -47 -44 -44 -117
12 -227 -133 -253 -333 -13 -104 -4 -194 32 -330 18 -67 33 -160 40 -237 6
-69 17 -149 26 -177 8 -27 13 -53 12 -58 -1 -4 6 -24 17 -43 22 -42 36 -98 25
-105 -4 -2 -28 27 -55 65 -41 61 -45 72 -34 87 12 14 11 15 -11 8 -83 -25
-112 -138 -75 -289 22 -87 76 -248 82 -243 2 3 -6 42 -17 88 -27 105 -22 155
17 186 51 42 82 24 91 -52 6 -53 -15 -70 -50 -39 -20 19 -21 19 -13 -6 31 -98
43 -165 32 -172 -7 -4 125 -8 293 -8 302 1 306 1 355 25 l50 24 -30 -24 -30
-25 65 0 c44 0 73 5 88 16 17 12 22 12 20 2 -2 -9 11 -14 43 -16 43 -3 47 -1
59 28 7 17 27 38 44 47 l31 16 -50 14 c-27 7 -56 11 -62 8 -17 -6 -16 13 3 66
8 24 19 77 24 118 6 41 12 76 14 79 11 11 77 19 112 13 38 -6 39 -7 51 -65 6
-33 16 -69 21 -80 6 -12 22 -53 37 -92 14 -39 42 -90 61 -113 35 -40 37 -41
102 -41 60 0 64 1 46 15 -17 13 -15 13 18 0 30 -12 94 -15 335 -15 164 0 292
4 285 8 -9 7 -8 24 7 83 11 41 23 83 27 94 7 20 7 20 -14 1 -45 -39 -67 8 -38
79 17 40 29 43 73 15 52 -31 53 -89 6 -265 -3 -13 -2 -16 4 -10 5 6 27 69 49
140 33 112 39 143 39 225 0 103 -13 136 -63 159 -31 15 -34 14 -28 -7 4 -11
-6 -34 -25 -60 -17 -23 -32 -42 -34 -42 -7 0 7 54 22 84 10 21 11 27 2 19 -25
-25 -28 -12 -8 45 13 37 23 104 29 189 7 101 16 155 38 225 37 117 46 194 32
281 l-11 68 45 50 c24 27 51 70 60 96 18 51 22 163 6 163 -5 0 -21 -23 -35
-50 -36 -71 -79 -83 -155 -45 -14 7 -92 80 -175 162 -211 208 -337 278 -575
318 -92 16 -394 28 -455 19z m155 -818 c140 0 309 2 375 4 113 5 123 3 170
-20 l50 -25 3 -65 c3 -60 -12 -235 -25 -287 -4 -18 -12 -23 -37 -23 -63 0
-247 -53 -281 -80 -11 -9 -40 -23 -65 -31 -25 -7 -65 -27 -90 -44 -35 -24 -45
-36 -45 -58 1 -22 -3 -27 -25 -27 -22 0 -26 5 -25 27 0 22 -10 34 -45 58 -25
17 -65 37 -90 44 -25 8 -54 22 -65 31 -34 27 -218 80 -281 80 -37 0 -38 1 -54
148 -14 117 -10 236 8 254 18 18 89 26 182 19 47 -3 200 -5 340 -5z m-440
-810 c0 -29 -28 -42 -48 -22 -20 20 -8 46 23 46 20 0 25 -5 25 -24z m877 8 c8
-21 -19 -46 -40 -38 -20 7 -23 40 -4 47 23 10 38 7 44 -9z m246 -41 c28 -30
44 -74 25 -70 -6 1 -12 -7 -13 -18 -1 -11 -5 -46 -9 -78 -9 -71 10 -112 47
-102 22 6 22 6 2 -11 -80 -66 -225 -80 -328 -32 -81 38 -156 124 -144 167 2 9
-2 22 -10 29 -18 18 -17 23 16 62 31 37 33 36 45 -22 3 -14 17 -40 31 -56 14
-17 22 -32 18 -34 -5 -3 -2 -3 6 -1 7 2 20 -2 27 -8 18 -14 157 -6 162 9 2 6
10 8 18 5 8 -3 14 -2 13 3 -1 5 8 31 21 58 18 39 21 59 16 98 -6 45 -5 48 11
39 10 -5 30 -22 46 -38z m-1248 -10 c-5 -40 -2 -56 18 -95 14 -25 22 -50 19
-54 -4 -4 -1 -4 7 1 8 4 17 2 22 -6 11 -18 169 -27 169 -9 0 7 8 9 23 5 14 -4
18 -3 9 3 -10 7 -10 11 3 22 25 21 45 66 45 101 0 32 0 32 21 13 57 -51 56
-103 -4 -187 -44 -61 -89 -94 -156 -114 -93 -27 -219 -4 -286 51 -20 17 -20
17 1 11 35 -9 49 20 49 102 0 40 -3 73 -7 73 -5 0 -7 5 -5 12 1 7 -5 13 -13
13 -24 1 -13 27 30 68 52 50 62 48 55 -10z"/>
<path d="M2719 1753 c-13 -16 -12 -17 4 -4 16 13 21 21 13 21 -2 0 -10 -8 -17
-17z"/>
<path d="M1460 1766 c0 -2 8 -10 18 -17 15 -13 16 -12 3 4 -13 16 -21 21 -21
13z"/>
<path d="M1844 1734 c-18 -14 -18 -15 4 -4 12 6 22 13 22 15 0 8 -5 6 -26 -11z"/>
<path d="M2150 1596 l-45 -12 31 -17 c17 -9 37 -30 44 -47 11 -27 17 -30 55
-30 23 0 44 3 48 6 7 8 -26 76 -48 98 -19 18 -24 18 -85 2z"/>
<path d="M869 1434 c-9 -26 -3 -229 21 -643 l9 -164 -43 -66 c-53 -79 -104
-231 -141 -416 -14 -70 -25 -131 -25 -136 0 -5 553 -9 1395 -9 767 0 1395 2
1395 5 0 20 -55 278 -75 354 -23 86 -67 181 -101 221 -13 15 -6 250 22 718 5
85 4 119 -6 138 -8 14 -16 20 -20 14 -11 -17 -2282 -12 -2393 5 -23 4 -29 0
-38 -21z m1301 -532 c0 -22 -35 -62 -55 -62 -24 0 -17 29 11 55 32 30 44 31
44 7z m-70 -84 c8 0 33 3 55 7 28 5 46 2 59 -8 18 -13 18 -15 3 -38 -23 -32
-21 -78 4 -105 17 -18 19 -26 10 -42 -10 -19 -19 -12 -113 81 -57 56 -101 106
-99 111 2 4 18 5 35 1 17 -4 38 -7 46 -7z"/>
</g>
</svg>
